# Blender v2.73 (sub 0) OBJ File: 'link.blend'
# www.blender.org
v -0.600000 0.000000 -0.050000
v -0.595106 0.030902 -0.050000
v -0.595106 -0.030902 -0.050000
v -0.580902 0.058779 -0.050000
v -0.558779 0.080902 -0.050000
v -0.530902 0.095106 -0.050000
v -0.500000 0.100000 -0.050000
v -0.515451 0.047553 -0.050000
v -0.500000 0.050000 -0.050000
v -0.529389 0.040451 -0.050000
v -0.540451 0.029389 -0.050000
v -0.550000 0.000000 -0.050000
v -0.547553 0.015451 -0.050000
v -0.547553 -0.015451 -0.050000
v -0.540451 -0.029389 -0.050000
v -0.529389 -0.040451 -0.050000
v -0.515451 -0.047553 -0.050000
v -0.500000 -0.050000 -0.050000
v -0.500000 -0.100000 -0.050000
v -0.530902 -0.095106 -0.050000
v -0.558779 -0.080902 -0.050000
v -0.580902 -0.058779 -0.050000
v -0.600000 0.000000 0.050000
v -0.595106 0.030902 0.050000
v -0.595106 -0.030902 0.050000
v -0.580902 -0.058779 0.050000
v -0.558779 -0.080902 0.050000
v -0.530902 -0.095106 0.050000
v -0.500000 -0.100000 0.050000
v -0.500000 -0.050000 0.050000
v -0.484549 -0.047553 0.050000
v -0.484549 -0.047553 -0.050000
v -0.515451 -0.047553 0.050000
v -0.529389 -0.040451 0.050000
v -0.540451 -0.029389 0.050000
v -0.547553 -0.015451 0.050000
v -0.550000 0.000000 0.050000
v -0.547553 0.015451 0.050000
v -0.540451 0.029389 0.050000
v -0.529389 0.040451 0.050000
v -0.515451 0.047553 0.050000
v -0.500000 0.050000 0.050000
v -0.484549 0.047553 -0.050000
v -0.484549 0.047553 0.050000
v -0.530902 0.095106 0.050000
v -0.500000 0.100000 0.050000
v -0.558779 0.080902 0.050000
v -0.580902 0.058779 0.050000
v 0.500000 -0.100000 -0.050000
v -0.470611 -0.040451 -0.050000
v -0.459549 -0.029389 -0.050000
v -0.452447 -0.015451 -0.050000
v -0.450000 0.000000 -0.050000
v -0.452447 0.015451 -0.050000
v -0.459549 0.029389 -0.050000
v -0.470611 0.040451 -0.050000
v 0.500000 0.050000 -0.050000
v 0.500000 0.100000 -0.050000
v 0.484549 0.047553 -0.050000
v 0.470611 0.040451 -0.050000
v 0.459549 0.029389 -0.050000
v 0.452447 0.015451 -0.050000
v 0.450000 0.000000 -0.050000
v 0.452447 -0.015451 -0.050000
v 0.459549 -0.029389 -0.050000
v 0.484549 -0.047553 -0.050000
v 0.470611 -0.040451 -0.050000
v 0.500000 -0.050000 -0.050000
v 0.500000 -0.100000 0.050000
v 0.484549 -0.047553 0.050000
v 0.500000 -0.050000 0.050000
v 0.470611 -0.040451 0.050000
v 0.459549 -0.029389 0.050000
v 0.452447 -0.015451 0.050000
v 0.450000 0.000000 0.050000
v 0.452447 0.015451 0.050000
v 0.459549 0.029389 0.050000
v 0.470611 0.040451 0.050000
v 0.484549 0.047553 0.050000
v 0.500000 0.050000 0.050000
v 0.500000 0.100000 0.050000
v -0.470611 0.040451 0.050000
v -0.459549 0.029389 0.050000
v -0.452447 0.015451 0.050000
v -0.450000 0.000000 0.050000
v -0.452447 -0.015451 0.050000
v -0.459549 -0.029389 0.050000
v -0.470611 -0.040451 0.050000
v 0.515451 -0.047553 0.050000
v 0.515451 -0.047553 -0.050000
v 0.530902 -0.095106 0.050000
v 0.580902 -0.058779 0.050000
v 0.558779 -0.080902 0.050000
v 0.529389 -0.040451 0.050000
v 0.595106 -0.030902 0.050000
v 0.540451 -0.029389 0.050000
v 0.600000 0.000000 0.050000
v 0.550000 0.000000 0.050000
v 0.547553 -0.015451 0.050000
v 0.595106 0.030902 0.050000
v 0.547553 0.015451 0.050000
v 0.580902 0.058779 0.050000
v 0.529389 0.040451 0.050000
v 0.540451 0.029389 0.050000
v 0.558779 0.080902 0.050000
v 0.530902 0.095106 0.050000
v 0.515451 0.047553 0.050000
v 0.530902 -0.095106 -0.050000
v 0.529389 -0.040451 -0.050000
v 0.540451 -0.029389 -0.050000
v 0.547553 -0.015451 -0.050000
v 0.580902 0.058779 -0.050000
v 0.529389 0.040451 -0.050000
v 0.540451 0.029389 -0.050000
v 0.515451 0.047553 -0.050000
v 0.530902 0.095106 -0.050000
v 0.547553 0.015451 -0.050000
v 0.558779 0.080902 -0.050000
v 0.550000 0.000000 -0.050000
v 0.595106 0.030902 -0.050000
v 0.600000 0.000000 -0.050000
v 0.595106 -0.030902 -0.050000
v 0.580902 -0.058779 -0.050000
v 0.558779 -0.080902 -0.050000
v 0.529389 -0.040451 0.050000
v 0.540451 -0.029389 0.050000
v -0.450000 0.000000 0.050000
v -0.452447 -0.015451 0.050000
v 0.595106 0.030902 0.050000
v 0.580902 0.058779 0.050000
v 0.484549 -0.047553 0.050000
v 0.470611 -0.040451 0.050000
v 0.530902 0.095106 -0.050000
v 0.558779 0.080902 -0.050000
v 0.459549 0.029389 0.050000
v 0.470611 0.040451 0.050000
v -0.595106 -0.030902 -0.050000
v -0.580902 -0.058779 -0.050000
v 0.547553 0.015451 0.050000
v 0.540451 0.029389 0.050000
v -0.484549 -0.047553 0.050000
v -0.470611 -0.040451 0.050000
v 0.580902 -0.058779 -0.050000
v 0.558779 -0.080902 -0.050000
v -0.500000 -0.100000 0.050000
v 0.500000 -0.100000 0.050000
v -0.558779 0.080902 0.050000
v -0.580902 0.058779 0.050000
v -0.540451 0.029389 0.050000
v -0.529389 0.040451 0.050000
v -0.459549 0.029389 -0.050000
v -0.470611 0.040451 -0.050000
v 0.450000 0.000000 -0.050000
v 0.452447 -0.015451 -0.050000
v -0.500000 0.050000 -0.050000
v -0.484549 0.047553 -0.050000
v -0.515451 -0.047553 -0.050000
v -0.500000 -0.050000 -0.050000
v -0.595106 -0.030902 0.050000
v -0.580902 -0.058779 0.050000
v 0.529389 0.040451 0.050000
v 0.515451 0.047553 0.050000
v -0.595106 0.030902 -0.050000
v -0.580902 0.058779 -0.050000
v -0.600000 0.000000 -0.050000
v -0.452447 0.015451 0.050000
v -0.484549 0.047553 0.050000
v -0.470611 0.040451 0.050000
v 0.580902 -0.058779 0.050000
v 0.558779 -0.080902 0.050000
v 0.452447 0.015451 0.050000
v 0.558779 0.080902 0.050000
v 0.547553 0.015451 -0.050000
v 0.550000 0.000000 -0.050000
v -0.484549 -0.047553 -0.050000
v -0.470611 -0.040451 -0.050000
v -0.515451 0.047553 0.050000
v 0.580902 0.058779 -0.050000
v 0.595106 0.030902 -0.050000
v 0.500000 0.050000 -0.050000
v 0.484549 0.047553 -0.050000
v 0.459549 -0.029389 -0.050000
v -0.529389 -0.040451 -0.050000
v -0.515451 0.047553 -0.050000
v -0.459549 -0.029389 0.050000
v -0.500000 -0.100000 -0.050000
v 0.500000 -0.100000 -0.050000
v 0.484549 0.047553 0.050000
v 0.500000 0.050000 0.050000
v 0.529389 -0.040451 -0.050000
v 0.540451 -0.029389 -0.050000
v -0.500000 0.050000 0.050000
v -0.530902 0.095106 0.050000
v -0.500000 0.100000 0.050000
v -0.550000 0.000000 0.050000
v -0.547553 0.015451 0.050000
v 0.500000 -0.050000 0.050000
v 0.515451 -0.047553 0.050000
v -0.450000 0.000000 -0.050000
v -0.452447 0.015451 -0.050000
v -0.550000 0.000000 -0.050000
v -0.547553 -0.015451 -0.050000
v 0.459549 0.029389 -0.050000
v 0.452447 0.015451 -0.050000
v -0.600000 0.000000 0.050000
v -0.595106 0.030902 0.050000
v -0.500000 0.100000 -0.050000
v 0.500000 0.100000 -0.050000
v 0.595106 -0.030902 0.050000
v -0.540451 -0.029389 -0.050000
v 0.600000 0.000000 0.050000
v -0.459549 0.029389 0.050000
v 0.452447 -0.015451 0.050000
v 0.450000 0.000000 0.050000
v 0.484549 -0.047553 -0.050000
v 0.470611 -0.040451 -0.050000
v 0.550000 0.000000 0.050000
v 0.547553 -0.015451 0.050000
v 0.595106 -0.030902 -0.050000
v 0.515451 -0.047553 -0.050000
v -0.529389 -0.040451 0.050000
v -0.540451 -0.029389 0.050000
v -0.459549 -0.029389 -0.050000
v -0.558779 -0.080902 0.050000
v -0.529389 0.040451 -0.050000
v -0.540451 0.029389 -0.050000
v 0.500000 -0.050000 -0.050000
v 0.459549 -0.029389 0.050000
v 0.530902 -0.095106 0.050000
v 0.547553 -0.015451 -0.050000
v -0.547553 -0.015451 0.050000
v -0.452447 -0.015451 -0.050000
v 0.470611 0.040451 -0.050000
v -0.558779 -0.080902 -0.050000
v -0.558779 0.080902 -0.050000
v -0.530902 0.095106 -0.050000
v 0.540451 0.029389 -0.050000
v 0.529389 0.040451 -0.050000
v 0.515451 0.047553 -0.050000
v 0.600000 0.000000 -0.050000
v 0.530902 -0.095106 -0.050000
v -0.500000 -0.050000 0.050000
v -0.515451 -0.047553 0.050000
v -0.530902 -0.095106 -0.050000
v -0.530902 -0.095106 0.050000
v -0.547553 0.015451 -0.050000
v 0.530902 0.095106 0.050000
v 0.500000 0.100000 0.050000
vt 0.134876 1.000000
vt 0.093197 0.995922
vt 0.176556 0.995922
vt 0.055597 0.984085
vt 0.025759 0.965649
vt 0.006601 0.942418
vt 0.000000 0.916667
vt 0.070739 0.929542
vt 0.067438 0.916667
vt 0.080318 0.941158
vt 0.095237 0.950376
vt 0.134876 0.958333
vt 0.114037 0.956294
vt 0.155716 0.956294
vt 0.174515 0.950376
vt 0.189435 0.941158
vt 0.199014 0.929542
vt 0.202314 0.916667
vt 0.269752 0.916667
vt 0.263151 0.942418
vt 0.243994 0.965649
vt 0.214155 0.984085
vt 0.944133 0.045890
vt 0.809257 0.045890
vt 0.944133 0.021093
vt 0.809257 0.021093
vt 0.944133 0.071962
vt 0.809257 0.071962
vt 0.944133 0.096759
vt 0.809257 0.096759
vt 0.944133 0.117852
vt 0.809257 0.117852
vt 0.809257 0.931298
vt 0.674381 0.931298
vt 0.674381 0.908068
vt 0.809257 0.908068
vt 0.674381 0.882316
vt 0.809257 0.882316
vt 0.863815 0.235703
vt 0.884655 0.235703
vt 0.863815 0.319037
vt 0.884655 0.319037
vt 0.842976 0.235703
vt 0.842976 0.319037
vt 0.824177 0.235703
vt 0.824177 0.319037
vt 0.809257 0.235703
vt 0.809257 0.319037
vt 0.921697 0.485703
vt 0.904628 0.485704
vt 0.904628 0.402370
vt 0.921697 0.402370
vt 0.941764 0.485704
vt 0.941764 0.402370
vt 0.962864 0.402370
vt 0.962864 0.485703
vt 0.982930 0.402370
vt 0.982930 0.485703
vt 1.000000 0.402370
vt 1.000000 0.485703
vt 0.978853 0.319037
vt 0.978853 0.235703
vt 0.997652 0.235703
vt 0.997652 0.319037
vt 0.958013 0.319037
vt 0.958013 0.235703
vt 0.937173 0.319037
vt 0.937173 0.235703
vt 0.674381 0.926503
vt 0.539505 0.926503
vt 0.674381 0.900752
vt 0.539505 0.900752
vt 0.674381 0.949734
vt 0.539505 0.949734
vt 0.674381 0.968170
vt 0.539505 0.968170
vt 0.944133 0.000000
vt 0.809257 0.000000
vt 0.446308 0.995922
vt 0.404628 1.000000
vt 0.362949 0.995922
vt 0.295511 0.965649
vt 0.325350 0.984085
vt 0.276353 0.942418
vt 0.364990 0.950376
vt 0.337190 0.916667
vt 0.340491 0.929542
vt 0.350070 0.941158
vt 0.383789 0.956294
vt 0.404628 0.958333
vt 0.425468 0.956294
vt 0.444267 0.950376
vt 0.459187 0.941158
vt 0.468766 0.929542
vt 0.539504 0.916667
vt 0.472066 0.916667
vt 0.532903 0.942418
vt 0.513746 0.965649
vt 0.483907 0.984085
vt 0.269752 0.083333
vt 0.199014 0.903791
vt 0.189435 0.892176
vt 0.174515 0.882958
vt 0.155716 0.877039
vt 0.134876 0.875000
vt 0.114036 0.877039
vt 0.095237 0.882958
vt 0.080317 0.892176
vt 0.070739 0.903791
vt 0.067438 0.083333
vt 0.000000 0.083333
vt 0.070738 0.096209
vt 0.080317 0.107824
vt 0.095237 0.117043
vt 0.114036 0.122961
vt 0.134876 0.125000
vt 0.155716 0.122961
vt 0.174515 0.117043
vt 0.199014 0.096209
vt 0.189435 0.107824
vt 0.202314 0.083333
vt 0.340491 0.096209
vt 0.337190 0.083333
vt 0.350069 0.107824
vt 0.364989 0.117043
vt 0.383788 0.122961
vt 0.404628 0.125000
vt 0.425468 0.122961
vt 0.444267 0.117043
vt 0.459187 0.107824
vt 0.468766 0.096209
vt 0.472066 0.083333
vt 0.539504 0.083333
vt 0.340491 0.903791
vt 0.468766 0.903791
vt 0.459187 0.892176
vt 0.444267 0.882958
vt 0.425468 0.877039
vt 0.404628 0.875000
vt 0.383789 0.877039
vt 0.364990 0.882958
vt 0.350070 0.892176
vt 0.674381 0.048982
vt 0.809257 0.048982
vt 0.903454 0.235703
vt 0.903454 0.319037
vt 0.918374 0.319037
vt 0.918374 0.235703
vt 0.674380 0.067418
vt 0.539504 0.067418
vt 0.863815 0.402370
vt 0.842976 0.402370
vt 0.824177 0.402370
vt 0.809257 0.402370
vt 0.826326 0.569037
vt 0.809257 0.569037
vt 0.809257 0.485704
vt 0.826326 0.485704
vt 0.846393 0.569037
vt 0.846393 0.485704
vt 0.867492 0.485704
vt 0.867492 0.569037
vt 0.887558 0.485704
vt 0.887558 0.569037
vt 0.904628 0.569037
vt 0.978853 0.402370
vt 0.997652 0.402370
vt 0.958013 0.402370
vt 0.921699 0.569037
vt 0.941765 0.569037
vt 0.962864 0.569037
vt 0.982931 0.569037
vt 1.000000 0.569037
vt 0.884655 0.402370
vt 0.276353 0.057582
vt 0.325349 0.015915
vt 0.295511 0.034351
vt 0.340491 0.070458
vt 0.350069 0.058842
vt 0.362949 0.004078
vt 0.364989 0.049624
vt 0.404628 0.000000
vt 0.404628 0.041667
vt 0.383788 0.043706
vt 0.446307 0.004078
vt 0.425468 0.043706
vt 0.483907 0.015915
vt 0.459187 0.058842
vt 0.444267 0.049624
vt 0.513745 0.034351
vt 0.532903 0.057582
vt 0.468766 0.070458
vt 0.674381 0.023231
vt 0.809257 0.023231
vt 0.263151 0.057582
vt 0.199014 0.070458
vt 0.189435 0.058842
vt 0.174515 0.049624
vt 0.155716 0.043706
vt 0.055597 0.015915
vt 0.080317 0.058842
vt 0.095237 0.049624
vt 0.070738 0.070458
vt 0.006601 0.057582
vt 0.114036 0.043706
vt 0.025759 0.034351
vt 0.134876 0.041667
vt 0.093197 0.004078
vt 0.134876 0.000000
vt 0.176555 0.004078
vt 0.214155 0.015915
vt 0.243993 0.034351
vt 0.937173 0.402370
vt 0.674380 0.041667
vt 0.539504 0.041667
vt 0.903454 0.402370
vt 0.918374 0.402370
vt 0.887559 0.402370
vt 0.867493 0.402370
vt 0.846393 0.402370
vt 0.826327 0.402370
vt 0.674380 0.018436
vt 0.539504 0.018436
vt 0.674380 0.000000
vt 0.539504 0.000000
vt 0.809257 0.138945
vt 0.944133 0.138945
vt 0.809257 0.163741
vt 0.944133 0.163741
vt 0.944133 0.189814
vt 0.809257 0.189814
vt 0.944133 0.214611
vt 0.809257 0.214611
vt 0.944133 0.235703
vn 0.000000 0.000000 -1.000000
vn -1.000000 0.000000 0.000000
vn -0.951100 0.309000 0.000000
vn -0.951100 -0.309000 0.000000
vn -0.809000 -0.587800 0.000000
vn -0.587800 -0.809000 0.000000
vn -0.309000 -0.951100 0.000000
vn -0.078500 -0.996900 0.000000
vn 0.000000 1.000000 0.000000
vn -0.309000 0.951100 0.000000
vn 0.309000 0.951100 0.000000
vn 0.587800 0.809000 0.000000
vn 0.809000 0.587800 0.000000
vn 0.951100 0.309000 0.000000
vn 1.000000 0.000000 0.000000
vn 0.951100 -0.309000 0.000000
vn 0.809000 -0.587800 0.000000
vn 0.587800 -0.809000 0.000000
vn 0.309000 -0.951100 0.000000
vn -0.000000 -1.000000 0.000000
vn -0.078500 0.996900 0.000000
vn -0.587800 0.809000 0.000000
vn -0.809000 0.587800 0.000000
vn -0.000000 0.000000 1.000000
vn 0.078500 -0.996900 0.000000
vn 0.078500 0.996900 0.000000
s 1
f 1/1/1 2/2/1 3/3/1
f 3/3/1 2/2/1 164/4/1
f 3/3/1 164/4/1 235/5/1
f 3/3/1 235/5/1 236/6/1
f 3/3/1 236/6/1 7/7/1
f 184/8/1 7/7/1 155/9/1
f 10/10/1 7/7/1 184/8/1
f 226/11/1 7/7/1 10/10/1
f 3/3/1 7/7/1 226/11/1
f 12/12/1 3/3/1 246/13/1
f 3/3/1 12/12/1 202/14/1
f 202/14/1 15/15/1 3/3/1
f 15/15/1 183/16/1 3/3/1
f 183/16/1 17/17/1 3/3/1
f 17/17/1 18/18/1 19/19/1
f 17/17/1 19/19/1 3/3/1
f 3/3/1 19/19/1 244/20/1
f 3/3/1 244/20/1 234/21/1
f 3/3/1 234/21/1 22/22/1
f 246/13/1 3/3/1 226/11/1
f 165/23/2 23/24/2 163/25/3
f 163/25/3 23/24/2 24/26/3
f 165/23/2 137/27/4 23/24/2
f 23/24/2 137/27/4 25/28/4
f 137/27/4 138/29/5 25/28/4
f 25/28/4 138/29/5 26/30/5
f 26/30/5 138/29/5 21/31/6
f 27/32/6 26/30/5 21/31/6
f 27/33/6 21/34/6 20/35/7
f 245/36/7 27/33/6 20/35/7
f 245/36/7 20/35/7 186/37/8
f 145/38/8 245/36/7 186/37/8
f 242/39/9 141/40/10 158/41/9
f 158/41/9 141/40/10 175/42/10
f 242/39/9 158/41/9 33/43/11
f 33/43/11 158/41/9 157/44/11
f 33/43/11 157/44/11 34/45/12
f 34/45/12 157/44/11 16/46/12
f 34/45/12 16/46/12 35/47/13
f 35/47/13 16/46/12 210/48/13
f 36/49/14 35/50/13 210/51/13
f 14/52/14 36/49/14 210/51/13
f 37/53/15 36/49/14 14/52/14
f 201/54/15 37/53/15 14/52/14
f 13/55/16 38/56/16 37/53/15
f 201/54/15 13/55/16 37/53/15
f 11/57/17 39/58/17 38/56/16
f 13/55/16 11/57/17 38/56/16
f 225/59/18 40/60/18 39/58/17
f 11/57/17 225/59/18 39/58/17
f 8/61/19 177/62/19 40/63/18
f 225/64/18 8/61/19 40/63/18
f 9/65/20 192/66/20 177/62/19
f 8/61/19 9/65/20 177/62/19
f 43/67/7 167/68/7 192/66/20
f 9/65/20 43/67/7 192/66/20
f 6/69/10 45/70/10 207/71/21
f 207/71/21 45/70/10 194/72/21
f 5/73/22 47/74/22 6/69/10
f 6/69/10 47/74/22 45/70/10
f 4/75/23 48/76/23 5/73/22
f 5/73/22 48/76/23 47/74/22
f 163/25/3 24/26/3 4/77/23
f 4/77/23 24/26/3 48/78/23
f 206/79/24 205/80/24 159/81/24
f 224/82/24 206/79/24 160/83/24
f 160/83/24 206/79/24 159/81/24
f 28/84/24 206/79/24 224/82/24
f 29/19/24 206/79/24 28/84/24
f 222/85/24 206/79/24 29/19/24
f 30/86/24 243/87/24 29/19/24
f 243/87/24 221/88/24 29/19/24
f 231/89/24 195/90/24 206/79/24
f 221/88/24 222/85/24 29/19/24
f 196/91/24 206/79/24 195/90/24
f 149/92/24 206/79/24 196/91/24
f 150/93/24 206/79/24 149/92/24
f 41/94/24 206/79/24 150/93/24
f 46/95/24 206/79/24 41/94/24
f 46/95/24 41/94/24 42/96/24
f 193/97/24 206/79/24 46/95/24
f 147/98/24 206/79/24 193/97/24
f 148/99/24 206/79/24 147/98/24
f 222/85/24 231/89/24 206/79/24
f 19/19/1 18/18/1 187/100/1
f 187/100/1 18/18/1 32/101/1
f 187/100/1 32/101/1 50/102/1
f 50/102/1 51/103/1 187/100/1
f 51/103/1 52/104/1 187/100/1
f 52/104/1 199/105/1 187/100/1
f 199/105/1 54/106/1 187/100/1
f 54/106/1 55/107/1 187/100/1
f 55/107/1 56/108/1 187/100/1
f 56/108/1 156/109/1 187/100/1
f 156/109/1 155/9/1 187/100/1
f 187/100/1 155/9/1 7/7/1
f 57/110/1 7/7/1 58/111/1
f 59/112/1 7/7/1 57/110/1
f 60/113/1 7/7/1 59/112/1
f 203/114/1 7/7/1 60/113/1
f 62/115/1 7/7/1 203/114/1
f 63/116/1 7/7/1 62/115/1
f 154/117/1 7/7/1 63/116/1
f 65/118/1 7/7/1 154/117/1
f 187/100/1 7/7/1 65/118/1
f 215/119/1 187/100/1 216/120/1
f 68/121/1 187/100/1 215/119/1
f 216/120/1 187/100/1 65/118/1
f 30/86/24 29/19/24 146/100/24
f 70/122/24 30/86/24 71/123/24
f 71/123/24 30/86/24 146/100/24
f 132/124/24 30/86/24 70/122/24
f 228/125/24 30/86/24 132/124/24
f 213/126/24 30/86/24 228/125/24
f 214/127/24 30/86/24 213/126/24
f 171/128/24 30/86/24 214/127/24
f 135/129/24 30/86/24 171/128/24
f 78/130/24 30/86/24 135/129/24
f 79/131/24 30/86/24 78/130/24
f 80/132/24 30/86/24 79/131/24
f 81/133/24 30/86/24 80/132/24
f 31/134/24 30/86/24 81/133/24
f 46/95/24 42/96/24 81/133/24
f 42/96/24 44/135/24 81/133/24
f 44/135/24 82/136/24 81/133/24
f 82/136/24 212/137/24 81/133/24
f 212/137/24 84/138/24 81/133/24
f 84/138/24 85/139/24 81/133/24
f 85/139/24 86/140/24 81/133/24
f 86/140/24 87/141/24 81/133/24
f 87/141/24 88/142/24 81/133/24
f 88/142/24 31/134/24 81/133/24
f 145/38/8 186/37/8 49/143/25
f 69/144/25 145/38/8 49/143/25
f 142/145/22 176/146/22 141/40/10
f 141/40/10 176/146/22 175/42/10
f 152/147/6 168/148/6 167/68/7
f 43/67/7 152/147/6 167/68/7
f 207/71/21 194/72/21 208/149/26
f 208/149/26 194/72/21 248/150/26
f 131/44/11 197/41/9 227/151/9
f 131/44/11 227/151/9 66/152/11
f 131/44/11 66/152/11 72/46/12
f 72/46/12 66/152/11 67/153/12
f 72/46/12 67/153/12 73/48/13
f 73/48/13 67/153/12 182/154/13
f 74/155/14 73/156/13 182/157/13
f 64/158/14 74/155/14 182/157/13
f 75/159/15 74/155/14 64/158/14
f 153/160/15 75/159/15 64/158/14
f 204/161/16 76/162/16 75/159/15
f 153/160/15 204/161/16 75/159/15
f 61/163/17 77/164/17 76/162/16
f 204/161/16 61/163/17 76/162/16
f 233/50/18 136/165/18 77/164/17
f 61/163/17 233/50/18 77/164/17
f 181/166/19 188/61/19 136/64/18
f 233/167/18 181/166/19 136/64/18
f 180/168/20 189/65/20 188/61/19
f 181/166/19 180/168/20 188/61/19
f 151/49/5 83/169/5 168/165/6
f 152/50/6 151/49/5 168/165/6
f 166/170/4 83/169/5 200/53/4
f 200/53/4 83/169/5 151/49/5
f 127/171/2 166/170/4 53/56/2
f 53/56/2 166/170/4 200/53/4
f 127/171/2 53/56/2 128/172/3
f 128/172/3 53/56/2 232/58/3
f 128/172/3 232/58/3 185/173/23
f 185/173/23 232/58/3 223/60/23
f 185/148/23 223/147/23 142/145/22
f 142/145/22 223/147/23 176/146/22
f 198/42/10 220/174/10 197/41/9
f 197/41/9 220/174/10 227/151/9
f 71/123/24 146/100/24 91/175/24
f 92/176/24 71/123/24 93/177/24
f 93/177/24 71/123/24 91/175/24
f 89/178/24 71/123/24 92/176/24
f 94/179/24 89/178/24 95/180/24
f 96/181/24 94/179/24 97/182/24
f 98/183/24 99/184/24 100/185/24
f 101/186/24 98/183/24 102/187/24
f 103/188/24 104/189/24 172/190/24
f 81/133/24 80/132/24 247/191/24
f 80/132/24 162/192/24 247/191/24
f 247/191/24 103/188/24 172/190/24
f 172/190/24 104/189/24 102/187/24
f 104/189/24 101/186/24 102/187/24
f 102/187/24 98/183/24 100/185/24
f 100/185/24 99/184/24 97/182/24
f 99/184/24 96/181/24 97/182/24
f 97/182/24 94/179/24 95/180/24
f 95/180/24 89/178/24 92/176/24
f 162/192/24 103/188/24 247/191/24
f 69/144/25 49/143/25 241/193/19
f 229/194/19 69/144/25 241/193/19
f 187/100/1 68/121/1 108/195/1
f 108/195/1 68/121/1 90/196/1
f 108/195/1 90/196/1 109/197/1
f 109/197/1 110/198/1 108/195/1
f 110/198/1 230/199/1 108/195/1
f 230/199/1 178/200/1 108/195/1
f 238/201/1 58/111/1 237/202/1
f 239/203/1 57/110/1 58/111/1
f 239/203/1 58/111/1 238/201/1
f 237/202/1 58/111/1 116/204/1
f 237/202/1 116/204/1 173/205/1
f 173/205/1 116/204/1 118/206/1
f 173/205/1 118/206/1 174/207/1
f 174/207/1 118/206/1 178/200/1
f 174/207/1 178/200/1 230/199/1
f 108/195/1 178/200/1 120/208/1
f 108/195/1 120/208/1 240/209/1
f 108/195/1 240/209/1 219/210/1
f 108/195/1 219/210/1 123/211/1
f 108/195/1 123/211/1 124/212/1
f 115/213/7 107/67/7 189/65/20
f 180/168/20 115/213/7 189/65/20
f 208/149/26 248/150/26 133/214/11
f 133/214/11 248/150/26 106/215/11
f 125/146/22 190/216/22 198/42/10
f 198/42/10 190/216/22 220/174/10
f 126/147/23 191/217/23 125/146/22
f 125/146/22 191/217/23 190/216/22
f 218/163/3 111/218/3 126/50/23
f 126/50/23 111/218/3 191/51/23
f 217/161/2 119/219/2 218/163/3
f 218/163/3 119/219/2 111/218/3
f 217/161/2 139/160/4 119/219/2
f 119/219/2 139/160/4 117/220/4
f 139/160/4 140/158/5 117/220/4
f 117/220/4 140/158/5 114/221/5
f 114/221/5 140/158/5 161/157/6
f 113/154/6 114/221/5 161/157/6
f 113/217/6 161/147/6 107/67/7
f 115/213/7 113/217/6 107/67/7
f 133/214/11 106/215/11 134/222/12
f 134/222/12 106/215/11 105/223/12
f 134/222/12 105/223/12 112/224/13
f 112/224/13 105/223/12 130/225/13
f 179/226/14 112/32/13 130/31/13
f 129/227/14 179/226/14 130/31/13
f 121/228/15 179/226/14 129/227/14
f 211/229/15 121/228/15 129/227/14
f 209/230/16 122/231/16 121/228/15
f 211/229/15 209/230/16 121/228/15
f 169/232/17 143/233/17 122/231/16
f 209/230/16 169/232/17 122/231/16
f 170/234/18 144/47/18 143/233/17
f 169/232/17 170/234/18 143/233/17
f 229/194/19 241/193/19 144/224/18
f 170/78/18 229/194/19 144/224/18
